<?xml version="1.0" encoding="UTF-8" standalone="no"?>
<!-- Uploaded to: SVG Repo, www.svgrepo.com, Generator: SVG Repo Mixer Tools -->

<svg
   width="800px"
   height="800px"
   viewBox="0 0 1024 1024"
   class="icon"
   version="1.1"
   id="svg151"
   sodipodi:docname="3.svg"
   xml:space="preserve"
   inkscape:version="1.2.2 (732a01da63, 2022-12-09)"
   xmlns:inkscape="http://www.inkscape.org/namespaces/inkscape"
   xmlns:sodipodi="http://sodipodi.sourceforge.net/DTD/sodipodi-0.dtd"
   xmlns="http://www.w3.org/2000/svg"
   xmlns:svg="http://www.w3.org/2000/svg"><defs
     id="defs155" /><sodipodi:namedview
     id="namedview153"
     pagecolor="#ffffff"
     bordercolor="#666666"
     borderopacity="1.0"
     inkscape:showpageshadow="2"
     inkscape:pageopacity="0.0"
     inkscape:pagecheckerboard="0"
     inkscape:deskcolor="#d1d1d1"
     showgrid="false"
     inkscape:zoom="0.50875"
     inkscape:cx="199.5086"
     inkscape:cy="712.53071"
     inkscape:window-width="1920"
     inkscape:window-height="1001"
     inkscape:window-x="-9"
     inkscape:window-y="-9"
     inkscape:window-maximized="1"
     inkscape:current-layer="svg151" /><path
     d="M256 661.333333m-106.666667 0a106.666667 106.666667 0 1 0 213.333334 0 106.666667 106.666667 0 1 0-213.333334 0Z"
     fill="#FFA726"
     id="path145" /><path
     d="M768 661.333333m-106.666667 0a106.666667 106.666667 0 1 0 213.333334 0 106.666667 106.666667 0 1 0-213.333334 0Z"
     fill="#FFA726"
     id="path147" /><path
     d="M426.666667 896s-46.933333-85.333333-170.666667-85.333333-170.666667 85.333333-170.666667 85.333333v42.666667h341.333334v-42.666667zM938.666667 896s-46.933333-85.333333-170.666667-85.333333-170.666667 85.333333-170.666667 85.333333v42.666667h341.333334v-42.666667z"
     fill="#607D8B"
     id="path149" /><g
     id="g447"
     transform="matrix(0.52875914,0,0,0.52875914,238.55521,27.430639)"><path
       d="M 661.33333,170.66667 915.2,204.8 706.13333,413.86667 Z M 362.66667,853.33333 108.8,819.2 317.86667,610.13333 Z m -192,-490.66666 L 204.8,108.8 413.86667,317.86667 Z"
       fill="#9c27b0"
       id="path432" /><path
       d="m 198.4,452.26667 -89.6,17.06666 c -2.13333,14.93334 -2.13333,27.73334 -2.13333,42.66667 0,98.13333 34.13333,192 98.13333,264.53333 l 64,-55.46666 C 219.73333,663.46667 192,588.8 192,512 c 0,-19.2 2.13333,-40.53333 6.4,-59.73333 z m 313.6,-345.6 c -115.2,0 -217.6,49.06666 -292.26667,125.86666 l 59.73334,59.73334 C 339.2,230.4 420.26667,192 512,192 c 19.2,0 40.53333,2.13333 59.73333,6.4 l 14.93334,-83.2 C 563.2,108.8 537.6,106.66667 512,106.66667 Z m 313.6,465.06666 89.6,-17.06666 c 2.13333,-14.93334 2.13333,-27.73334 2.13333,-42.66667 0,-93.86667 -32,-185.6 -91.73333,-258.13333 L 759.46667,307.2 C 806.4,364.8 832,437.33333 832,509.86667 c 0,21.33333 -2.13333,42.66666 -6.4,61.86666 z m -81.06667,160 C 684.8,793.6 603.73333,832 512,832 c -19.2,0 -40.53333,-2.13333 -59.73333,-6.4 l -14.93334,83.2 c 25.6,4.26667 51.2,6.4 74.66667,6.4 115.2,0 217.6,-49.06667 292.26667,-125.86667 z"
       fill="#9c27b0"
       id="path434" /><path
       d="M 853.33333,661.33333 819.2,915.2 610.13333,706.13333 Z"
       fill="#9c27b0"
       id="path436" /></g></svg>
