<?xml version="1.0" encoding="UTF-8" standalone="no"?>
<!-- Created with Inkscape (http://www.inkscape.org/) -->

<svg
   width="30pc"
   height="30pc"
   viewBox="0 0 127 127"
   version="1.1"
   id="svg5"
   inkscape:version="1.2.2 (732a01da63, 2022-12-09)"
   sodipodi:docname="logo.svg"
   xmlns:inkscape="http://www.inkscape.org/namespaces/inkscape"
   xmlns:sodipodi="http://sodipodi.sourceforge.net/DTD/sodipodi-0.dtd"
   xmlns="http://www.w3.org/2000/svg"
   xmlns:svg="http://www.w3.org/2000/svg">
  <sodipodi:namedview
     id="namedview7"
     pagecolor="#ffffff"
     bordercolor="#666666"
     borderopacity="1.0"
     inkscape:pageshadow="2"
     inkscape:pageopacity="0"
     inkscape:pagecheckerboard="0"
     inkscape:document-units="mm"
     showgrid="false"
     inkscape:zoom="0.81134747"
     inkscape:cx="-51.765737"
     inkscape:cy="122.6355"
     inkscape:window-width="1920"
     inkscape:window-height="1001"
     inkscape:window-x="-9"
     inkscape:window-y="-9"
     inkscape:window-maximized="1"
     inkscape:current-layer="layer1"
     inkscape:showpageshadow="2"
     inkscape:deskcolor="#d1d1d1" />
  <defs
     id="defs2" />
  <g
     inkscape:label="Слой 1"
     inkscape:groupmode="layer"
     id="layer1">
    <ellipse
       style="fill:#74452f;fill-opacity:1;stroke-width:0.282276"
       id="path79"
       ry="28.55751"
       rx="53.452858"
       cy="98.672508"
       cx="-9.1168814"
       transform="matrix(0.9286474,-0.37096362,0.64324323,0.7656619,0,0)" />
    <path
       style="fill:#382fe2;fill-opacity:1;stroke-width:1"
       id="path966"
       sodipodi:type="arc"
       sodipodi:cx="64.84417"
       sodipodi:cy="114.47041"
       sodipodi:rx="7.9982486"
       sodipodi:ry="7.9982266"
       sodipodi:start="0"
       sodipodi:end="6.2829235"
       sodipodi:arc-type="slice"
       d="m 72.842418,114.47041 a 7.9982486,7.9982266 0 0 1 -7.997725,7.99823 7.9982486,7.9982266 0 0 1 -7.998772,-7.99718 7.9982486,7.9982266 0 0 1 7.996678,-7.99927 7.9982486,7.9982266 0 0 1 7.999819,7.99613 l -7.998248,0.002 z" />
    <path
       style="fill:#382fe2;fill-opacity:1;stroke-width:1"
       id="path966-1"
       sodipodi:type="arc"
       sodipodi:cx="87.362076"
       sodipodi:cy="105.43287"
       sodipodi:rx="7.9982486"
       sodipodi:ry="7.9982266"
       sodipodi:start="0"
       sodipodi:end="6.2829235"
       sodipodi:arc-type="slice"
       d="m 95.360324,105.43287 a 7.9982486,7.9982266 0 0 1 -7.997725,7.99823 7.9982486,7.9982266 0 0 1 -7.998772,-7.99718 7.9982486,7.9982266 0 0 1 7.996678,-7.999278 7.9982486,7.9982266 0 0 1 7.999819,7.996128 l -7.998248,0.002 z" />
    <path
       style="fill:#382fe2;fill-opacity:1;stroke-width:1"
       id="path966-1-9"
       sodipodi:type="arc"
       sodipodi:cx="106.63255"
       sodipodi:cy="92.556122"
       sodipodi:rx="7.9982486"
       sodipodi:ry="7.9982266"
       sodipodi:start="0"
       sodipodi:end="6.2829235"
       sodipodi:arc-type="slice"
       d="m 114.6308,92.556122 a 7.9982486,7.9982266 0 0 1 -7.99772,7.998228 7.9982486,7.9982266 0 0 1 -7.998775,-7.997181 7.9982486,7.9982266 0 0 1 7.996675,-7.999274 7.9982486,7.9982266 0 0 1 7.99982,7.996133 l -7.99825,0.0021 z" />
    <path
       style="fill:#382fe2;fill-opacity:1;stroke-width:1"
       id="path966-2"
       sodipodi:type="arc"
       sodipodi:cx="84.823814"
       sodipodi:cy="40.668488"
       sodipodi:rx="7.9982486"
       sodipodi:ry="7.9982266"
       sodipodi:start="0"
       sodipodi:end="6.2829235"
       sodipodi:arc-type="slice"
       d="m 92.822063,40.668488 a 7.9982486,7.9982266 0 0 1 -7.997725,7.998226 7.9982486,7.9982266 0 0 1 -7.998772,-7.997179 7.9982486,7.9982266 0 0 1 7.996678,-7.999274 7.9982486,7.9982266 0 0 1 7.999819,7.996133 l -7.998249,0.0021 z" />
    <path
       style="fill:#382fe2;fill-opacity:1;stroke-width:1"
       id="path966-4"
       sodipodi:type="arc"
       sodipodi:cx="108.81134"
       sodipodi:cy="49.158382"
       sodipodi:rx="7.9982486"
       sodipodi:ry="7.9982266"
       sodipodi:start="0"
       sodipodi:end="6.2829235"
       sodipodi:arc-type="slice"
       d="m 116.80959,49.158382 a 7.9982486,7.9982266 0 0 1 -7.99773,7.998227 7.9982486,7.9982266 0 0 1 -7.99877,-7.99718 7.9982486,7.9982266 0 0 1 7.99668,-7.999273 7.9982486,7.9982266 0 0 1 7.99982,7.996132 l -7.99825,0.0021 z" />
    <path
       style="fill:#382fe2;fill-opacity:1;stroke-width:1"
       id="path966-5"
       sodipodi:type="arc"
       sodipodi:cx="117.63623"
       sodipodi:cy="71.771294"
       sodipodi:rx="7.9982486"
       sodipodi:ry="7.9982266"
       sodipodi:start="0"
       sodipodi:end="6.2829235"
       sodipodi:arc-type="slice"
       d="m 125.63448,71.771294 a 7.9982486,7.9982266 0 0 1 -7.99773,7.998226 7.9982486,7.9982266 0 0 1 -7.99877,-7.997179 7.9982486,7.9982266 0 0 1 7.99668,-7.999274 7.9982486,7.9982266 0 0 1 7.99982,7.996133 l -7.99825,0.0021 z" />
    <rect
       style="fill:#cccccc;stroke-width:2.37308"
       stroke="#a3a3a3"
       stroke-linejoin="mitter"
       id="rect2022"
       width="49.247574"
       height="31.270681"
       x="10.19887"
       y="29.857553"
       transform="matrix(0.94160612,-0.33671638,0,1,0,0)" />
  </g>
</svg>
