<?xml version="1.0" encoding="UTF-8" standalone="no"?>
<!-- Created with Inkscape (http://www.inkscape.org/) -->

<svg
   width="31.202599pc"
   height="26.750795pc"
   viewBox="0 0 132.091 113.24503"
   version="1.1"
   id="svg5"
   inkscape:version="1.2.2 (732a01da63, 2022-12-09)"
   sodipodi:docname="logo.svg"
   xmlns:inkscape="http://www.inkscape.org/namespaces/inkscape"
   xmlns:sodipodi="http://sodipodi.sourceforge.net/DTD/sodipodi-0.dtd"
   xmlns="http://www.w3.org/2000/svg"
   xmlns:svg="http://www.w3.org/2000/svg">
  <sodipodi:namedview
     id="namedview7"
     pagecolor="#ffffff"
     bordercolor="#666666"
     borderopacity="1.0"
     inkscape:pageshadow="2"
     inkscape:pageopacity="0"
     inkscape:pagecheckerboard="0"
     inkscape:document-units="mm"
     showgrid="false"
     inkscape:zoom="1.1474186"
     inkscape:cx="-241.84721"
     inkscape:cy="185.19832"
     inkscape:window-width="3200"
     inkscape:window-height="1721"
     inkscape:window-x="-9"
     inkscape:window-y="-9"
     inkscape:window-maximized="1"
     inkscape:current-layer="layer1"
     inkscape:showpageshadow="2"
     inkscape:deskcolor="#d1d1d1" />
  <defs
     id="defs2" />
  <g
     inkscape:label="Слой 1"
     inkscape:groupmode="layer"
     id="layer1">
    <ellipse
       style="fill:#74452f;fill-opacity:1;stroke-width:0.305027"
       id="path79"
       ry="30.859169"
       rx="57.761017"
       cy="91.707588"
       cx="-1.933591"
       transform="matrix(0.9286474,-0.37096362,0.64324323,0.7656619,0,0)" />
    <path
       style="fill:#382fe2;fill-opacity:1;stroke-width:1"
       id="path966"
       sodipodi:type="arc"
       sodipodi:cx="71.30069"
       sodipodi:cy="105.2468"
       sodipodi:rx="7.9982486"
       sodipodi:ry="7.9982266"
       sodipodi:start="0"
       sodipodi:end="6.2829235"
       sodipodi:arc-type="slice"
       d="m 79.298938,105.2468 a 7.9982486,7.9982266 0 0 1 -7.997725,7.99823 7.9982486,7.9982266 0 0 1 -7.998772,-7.99718 7.9982486,7.9982266 0 0 1 7.996678,-7.999273 7.9982486,7.9982266 0 0 1 7.999819,7.996133 l -7.998248,0.002 z" />
    <path
       style="fill:#382fe2;fill-opacity:1;stroke-width:1"
       id="path966-1"
       sodipodi:type="arc"
       sodipodi:cx="93.818596"
       sodipodi:cy="96.209267"
       sodipodi:rx="7.9982486"
       sodipodi:ry="7.9982266"
       sodipodi:start="0"
       sodipodi:end="6.2829235"
       sodipodi:arc-type="slice"
       d="m 101.81684,96.209267 a 7.9982486,7.9982266 0 0 1 -7.997721,7.998223 7.9982486,7.9982266 0 0 1 -7.998772,-7.997176 7.9982486,7.9982266 0 0 1 7.996678,-7.999274 7.9982486,7.9982266 0 0 1 7.999815,7.996133 l -7.998244,0.0021 z" />
    <path
       style="fill:#382fe2;fill-opacity:1;stroke-width:1"
       id="path966-1-9"
       sodipodi:type="arc"
       sodipodi:cx="113.08907"
       sodipodi:cy="83.33252"
       sodipodi:rx="7.9982486"
       sodipodi:ry="7.9982266"
       sodipodi:start="0"
       sodipodi:end="6.2829235"
       sodipodi:arc-type="slice"
       d="m 121.08732,83.33252 a 7.9982486,7.9982266 0 0 1 -7.99772,7.998226 7.9982486,7.9982266 0 0 1 -7.99878,-7.997179 7.9982486,7.9982266 0 0 1 7.99668,-7.999274 7.9982486,7.9982266 0 0 1 7.99982,7.996133 l -7.99825,0.0021 z" />
    <path
       style="fill:#382fe2;fill-opacity:1;stroke-width:1"
       id="path966-2"
       sodipodi:type="arc"
       sodipodi:cx="91.280334"
       sodipodi:cy="31.444883"
       sodipodi:rx="7.9982486"
       sodipodi:ry="7.9982266"
       sodipodi:start="0"
       sodipodi:end="6.2829235"
       sodipodi:arc-type="slice"
       d="m 99.278583,31.444883 a 7.9982486,7.9982266 0 0 1 -7.997725,7.998227 7.9982486,7.9982266 0 0 1 -7.998772,-7.99718 7.9982486,7.9982266 0 0 1 7.996678,-7.999273 7.9982486,7.9982266 0 0 1 7.999819,7.996132 l -7.998249,0.0021 z" />
    <path
       style="fill:#382fe2;fill-opacity:1;stroke-width:1"
       id="path966-4"
       sodipodi:type="arc"
       sodipodi:cx="115.26786"
       sodipodi:cy="39.93478"
       sodipodi:rx="7.9982486"
       sodipodi:ry="7.9982266"
       sodipodi:start="0"
       sodipodi:end="6.2829235"
       sodipodi:arc-type="slice"
       d="m 123.26611,39.93478 a 7.9982486,7.9982266 0 0 1 -7.99773,7.998227 7.9982486,7.9982266 0 0 1 -7.99877,-7.99718 7.9982486,7.9982266 0 0 1 7.99668,-7.999273 7.9982486,7.9982266 0 0 1 7.99982,7.996132 l -7.99825,0.0021 z" />
    <path
       style="fill:#382fe2;fill-opacity:1;stroke-width:1"
       id="path966-5"
       sodipodi:type="arc"
       sodipodi:cx="124.09275"
       sodipodi:cy="62.547691"
       sodipodi:rx="7.9982486"
       sodipodi:ry="7.9982266"
       sodipodi:start="0"
       sodipodi:end="6.2829235"
       sodipodi:arc-type="slice"
       d="m 132.091,62.547691 a 7.9982486,7.9982266 0 0 1 -7.99773,7.998227 7.9982486,7.9982266 0 0 1 -7.99877,-7.99718 7.9982486,7.9982266 0 0 1 7.99668,-7.999273 7.9982486,7.9982266 0 0 1 7.99982,7.996132 l -7.99825,0.0021 z" />
    <rect
       style="fill:#cccccc;stroke-width:2.37308"
       stroke="#a3a3a3"
       stroke-linejoin="mitter"
       id="rect2022"
       width="49.247574"
       height="31.270681"
       x="15.740101"
       y="23.468485"
       transform="matrix(0.94160612,-0.33671638,0,1,0,0)" />
  </g>
</svg>
