<?xml version="1.0" standalone="no"?>
<!DOCTYPE svg PUBLIC "-//W3C//DTD SVG 20010904//EN"
 "http://www.w3.org/TR/2001/REC-SVG-20010904/DTD/svg10.dtd">
<svg version="1.0" xmlns="http://www.w3.org/2000/svg"
 width="700.000000pt" height="700.000000pt" viewBox="0 0 700.000000 700.000000"
 preserveAspectRatio="xMidYMid meet">
<metadata>
Created by potrace 1.14, written by Peter Selinger 2001-2017
</metadata>
<g transform="translate(0.000000,700.000000) scale(0.100000,-0.100000)"
fill="#000000" stroke="none">
<path d="M3035 6506 c-49 -18 -319 -115 -600 -215 -280 -100 -532 -191 -560
-201 -27 -10 -97 -35 -155 -55 -58 -21 -121 -43 -140 -50 -19 -8 -82 -30 -140
-50 -105 -37 -139 -49 -215 -78 -22 -8 -85 -31 -140 -50 -247 -87 -609 -218
-613 -221 -3 -3 -5 -1528 -2 -1812 l0 -41 528 189 c290 104 570 204 622 222
156 56 651 233 855 306 105 37 262 94 350 125 88 31 176 62 195 70 19 7 56 20
81 29 l46 16 0 925 c0 657 -3 925 -11 924 -6 0 -51 -15 -101 -33z"/>
<path d="M4550 5179 c-214 -58 -347 -280 -306 -509 5 -24 12 -51 16 -60 62
-131 121 -195 225 -245 130 -63 249 -63 380 -1 280 132 336 512 106 719 -118
105 -265 139 -421 96z"/>
<path d="M5854 4706 c-76 -28 -141 -73 -189 -128 -51 -60 -80 -119 -102 -208
-2 -8 -3 -44 -3 -80 0 -257 216 -457 469 -437 188 15 342 141 392 322 60 218
-62 453 -276 530 -78 29 -215 29 -291 1z"/>
<path d="M3957 4275 c-1 -1 -58 -5 -127 -9 -131 -6 -152 -8 -345 -32 -125 -15
-378 -57 -470 -78 -11 -3 -49 -11 -85 -19 -736 -164 -1484 -492 -2000 -878
-130 -98 -153 -117 -283 -239 -192 -179 -356 -393 -433 -568 -14 -31 -29 -66
-34 -77 -62 -137 -82 -363 -45 -509 23 -92 85 -212 152 -297 67 -84 193 -190
293 -247 91 -51 217 -112 233 -112 7 0 17 -4 23 -9 8 -8 180 -64 231 -76 10
-2 45 -11 78 -19 33 -8 76 -17 95 -20 19 -3 45 -8 56 -10 36 -7 119 -19 219
-31 166 -20 535 -26 740 -11 61 4 117 8 125 8 89 3 593 81 700 108 19 5 46 11
60 14 148 26 579 155 779 232 243 93 555 236 736 336 103 57 210 122 213 130
2 5 8 8 13 8 5 0 53 30 107 66 511 350 837 737 933 1109 30 116 32 297 6 395
-80 295 -337 528 -741 675 -92 33 -291 87 -366 99 -19 3 -44 7 -55 10 -60 12
-194 29 -330 41 -64 6 -472 14 -478 10z"/>
<path d="M6410 3478 c-80 -12 -176 -62 -238 -125 -83 -85 -123 -178 -127 -296
-6 -198 120 -373 316 -436 86 -28 230 -16 312 25 275 139 335 499 119 710 -57
55 -61 57 -122 86 -82 39 -163 50 -260 36z"/>
<path d="M5760 2321 c-277 -81 -403 -380 -268 -634 133 -249 489 -303 689
-105 114 113 159 265 123 419 -56 241 -308 388 -544 320z"/>
<path d="M4708 1615 c-307 -81 -436 -452 -240 -693 100 -124 207 -173 368
-169 83 2 99 6 166 40 46 22 94 56 122 85 46 47 96 120 100 145 1 7 5 17 8 23
10 15 19 70 22 128 11 207 -147 407 -353 446 -65 12 -133 10 -193 -5z"/>
<path d="M3440 1109 c-176 -62 -292 -209 -304 -387 -18 -268 206 -491 473
-469 159 13 295 107 361 250 139 299 -80 634 -408 626 -39 -1 -94 -10 -122
-20z"/>
</g>
</svg>
