<?xml version="1.0" standalone="no"?>
<!DOCTYPE svg PUBLIC "-//W3C//DTD SVG 20010904//EN"
 "http://www.w3.org/TR/2001/REC-SVG-20010904/DTD/svg10.dtd">
<svg version="1.0" xmlns="http://www.w3.org/2000/svg"
 width="998.000000pt" height="998.000000pt" viewBox="0 0 998.000000 998.000000"
 preserveAspectRatio="xMidYMid meet">
<metadata>
Created by potrace 1.14, written by Peter Selinger 2001-2017
</metadata>
<g transform="translate(0.000000,998.000000) scale(0.100000,-0.100000)"
fill="#000000" stroke="none">
<path d="M4665 9256 c-17 -7 -68 -27 -115 -43 -47 -17 -143 -52 -215 -78 -71
-26 -138 -48 -149 -50 -10 -3 -24 -9 -32 -16 -8 -6 -14 -9 -14 -6 0 3 -17 -1
-37 -9 -20 -9 -44 -17 -52 -19 -34 -7 -116 -41 -123 -50 -4 -5 -8 -7 -8 -3 0
6 -31 -3 -130 -40 -8 -3 -17 -6 -20 -6 -3 -1 -9 -4 -15 -7 -9 -5 -99 -37 -130
-46 -12 -3 -138 -49 -210 -76 -16 -6 -34 -12 -40 -14 -9 -1 -63 -22 -140 -52
-16 -7 -30 -12 -30 -11 0 2 -40 -12 -78 -28 -21 -8 -44 -15 -52 -15 -8 0 -15
-4 -15 -9 0 -4 -3 -7 -7 -6 -10 2 -95 -23 -108 -32 -5 -4 -48 -20 -95 -36 -47
-15 -87 -32 -88 -36 -2 -5 -7 -6 -11 -3 -7 4 -115 -32 -166 -56 -11 -5 -33
-13 -50 -18 -16 -5 -88 -30 -160 -56 -71 -25 -150 -53 -175 -61 -25 -8 -54
-19 -65 -24 -11 -6 -78 -30 -150 -56 -71 -25 -168 -59 -215 -76 -47 -16 -103
-36 -125 -43 -22 -8 -89 -32 -150 -55 -60 -23 -114 -42 -120 -44 -5 -1 -35
-10 -65 -21 -30 -10 -57 -17 -59 -16 -2 2 -7 -1 -10 -6 -3 -4 -51 -23 -106
-42 l-100 -34 0 -1271 c0 -1260 1 -1271 20 -1268 11 2 25 7 30 12 16 12 105
39 105 32 0 -4 4 -2 8 3 4 6 32 18 62 29 30 10 66 23 80 29 14 5 30 11 35 12
6 2 89 31 185 65 95 35 180 63 187 63 7 0 13 4 13 9 0 4 5 8 11 8 11 0 204 67
269 93 14 6 32 11 41 13 9 2 36 12 62 23 25 11 48 17 51 14 3 -4 6 0 6 7 0 7
3 11 6 7 3 -3 29 3 58 15 28 11 74 27 101 35 28 8 55 18 60 23 6 4 24 11 40
15 38 10 57 17 115 42 8 3 17 7 20 8 31 7 131 42 150 52 14 7 31 13 38 13 7 0
20 4 30 10 9 5 69 27 132 49 63 22 171 60 240 84 69 25 145 53 170 61 25 9 52
19 60 23 8 3 17 7 20 8 25 6 91 29 116 41 17 7 40 15 50 17 11 1 24 6 30 9 6
4 45 19 87 33 42 14 89 31 104 37 16 6 35 12 43 14 8 2 23 7 35 12 34 16 246
90 255 89 3 0 15 5 28 12 13 7 31 14 40 16 15 4 163 57 202 73 8 3 20 6 25 7
6 0 19 6 30 12 11 5 41 16 68 24 26 7 47 16 47 19 0 3 8 6 19 7 10 1 34 8 53
16 l35 15 0 1266 c0 697 -3 1268 -6 1271 -4 2 -20 -2 -36 -9z"/>
<path d="M6810 7492 c-57 -7 -167 -47 -219 -78 -59 -35 -151 -118 -187 -170
-31 -43 -76 -134 -67 -134 5 0 3 -4 -3 -8 -7 -4 -19 -41 -27 -82 -40 -193 15
-395 145 -532 125 -131 262 -195 428 -198 163 -4 324 60 441 175 47 46 117
146 120 170 0 6 4 15 9 20 4 6 16 35 26 65 29 85 27 262 -5 358 -60 182 -191
316 -378 386 -23 8 -55 18 -70 22 -33 7 -177 11 -213 6z"/>
<path d="M8648 6855 c-2 -2 -22 -5 -45 -9 -23 -3 -58 -12 -78 -20 -19 -8 -36
-15 -38 -15 -16 2 -121 -57 -153 -86 -6 -5 -22 -19 -35 -31 -93 -81 -166 -215
-185 -339 -10 -60 -5 -240 6 -240 1 0 3 -11 6 -25 2 -14 22 -61 43 -105 77
-157 240 -289 396 -320 22 -5 47 -10 55 -12 8 -1 47 -3 85 -3 62 -1 96 4 185
24 38 9 131 56 175 90 44 33 145 136 145 148 0 4 11 23 24 43 22 33 46 92 63
156 10 38 16 228 8 247 -4 9 -9 28 -11 42 -4 28 -8 40 -53 131 -76 156 -249
285 -421 314 -44 7 -167 14 -172 10z"/>
<path d="M5607 6314 c-2 -2 -46 -6 -98 -9 -195 -11 -296 -20 -454 -40 -16 -2
-57 -7 -90 -11 -61 -7 -90 -11 -90 -14 0 -1 -16 -3 -35 -5 -49 -4 -120 -14
-150 -20 -38 -8 -100 -19 -175 -31 -11 -2 -54 -10 -95 -19 -41 -8 -88 -18
-105 -21 -16 -2 -46 -9 -65 -14 -19 -5 -46 -11 -60 -14 -14 -2 -56 -12 -95
-21 -38 -9 -77 -18 -85 -20 -8 -2 -16 -4 -17 -5 -3 -3 -2 -2 -58 -15 -22 -5
-42 -9 -45 -10 -3 -1 -18 -5 -35 -9 -16 -5 -61 -17 -99 -28 -38 -11 -76 -21
-85 -23 -9 -2 -54 -15 -100 -30 -46 -15 -91 -28 -100 -30 -9 -2 -43 -13 -76
-25 -33 -11 -60 -20 -60 -20 0 1 -7 -1 -15 -4 -8 -3 -69 -24 -135 -46 -66 -22
-129 -45 -140 -49 -11 -5 -69 -28 -130 -51 -60 -23 -119 -45 -130 -50 -11 -5
-81 -34 -155 -65 -74 -32 -139 -61 -144 -66 -6 -5 -18 -9 -28 -9 -10 0 -18 -4
-18 -10 0 -5 -7 -10 -15 -10 -8 0 -41 -13 -72 -29 -32 -16 -112 -56 -178 -89
-151 -76 -209 -106 -215 -112 -3 -3 -25 -15 -50 -28 -25 -13 -79 -44 -120 -68
-41 -25 -85 -49 -97 -54 -13 -5 -23 -14 -23 -20 0 -5 -6 -10 -13 -10 -14 0
-345 -216 -372 -243 -9 -10 -26 -22 -38 -29 -19 -10 -93 -64 -107 -78 -3 -3
-23 -19 -45 -35 -38 -28 -48 -36 -105 -85 -14 -12 -47 -40 -75 -63 -65 -54
-338 -327 -392 -392 -155 -186 -269 -354 -347 -512 -31 -62 -56 -114 -56 -116
0 -3 -8 -22 -17 -43 -9 -22 -17 -41 -18 -44 0 -3 -8 -27 -18 -55 -42 -124 -60
-238 -62 -395 -1 -85 1 -164 6 -176 4 -11 10 -38 13 -60 9 -53 44 -165 57
-181 6 -7 8 -13 5 -13 -6 0 9 -34 35 -80 5 -8 12 -22 16 -30 12 -29 99 -154
133 -194 150 -171 324 -302 555 -417 142 -70 179 -87 270 -119 33 -12 69 -25
80 -30 27 -11 182 -57 220 -65 6 -2 33 -9 60 -18 28 -8 52 -15 55 -15 3 0 16
-3 30 -6 14 -3 39 -8 55 -10 17 -2 30 -5 30 -6 0 -2 31 -8 70 -15 44 -7 87
-15 111 -20 12 -3 46 -7 75 -10 30 -3 63 -7 74 -9 18 -4 55 -8 175 -22 71 -8
157 -14 267 -18 56 -2 107 -8 114 -12 8 -4 9 -3 5 4 -5 9 0 10 16 4 13 -4 52
-6 88 -5 90 3 86 3 173 1 44 -2 81 0 84 5 2 4 12 3 22 -3 10 -5 21 -7 24 -3 3
3 52 7 109 9 57 1 137 6 178 9 41 4 95 8 120 10 25 3 73 6 108 9 34 3 84 9
110 12 26 4 63 8 82 9 19 2 36 4 38 5 1 1 10 3 20 4 15 2 114 16 152 21 8 2
35 6 60 9 25 4 86 13 135 22 50 9 104 18 120 21 41 7 60 11 63 13 1 2 11 4 22
5 11 1 21 3 23 5 1 1 11 3 22 5 11 1 31 5 45 8 65 15 77 18 105 22 25 5 248
59 390 96 22 6 47 12 55 14 8 2 15 4 15 5 0 1 10 3 23 6 12 2 48 12 80 23 31
10 84 26 117 35 33 10 70 21 83 26 14 6 22 6 22 0 0 -5 -12 -13 -27 -16 -129
-31 -273 -157 -343 -299 -22 -44 -42 -91 -44 -105 -2 -14 -8 -43 -14 -65 -9
-40 -8 -179 2 -224 10 -45 39 -126 54 -151 80 -133 160 -211 268 -264 96 -48
183 -66 287 -62 51 2 103 7 117 11 14 3 30 7 35 9 67 15 176 78 242 137 40 37
83 87 83 98 0 5 4 11 8 13 4 2 22 32 40 66 85 168 80 384 -11 557 -28 53 -124
161 -183 206 -43 33 -158 82 -229 97 -42 9 -203 8 -245 -1 -60 -13 -11 10 92
43 89 29 235 81 288 103 14 6 30 11 35 12 6 2 33 12 60 23 230 93 287 117 335
140 30 14 60 26 67 28 34 6 680 335 693 352 3 4 25 18 50 31 25 13 64 37 88
53 24 15 45 28 47 28 2 0 31 18 64 40 33 22 64 40 70 40 5 0 11 4 13 8 2 5 39
33 83 62 44 30 85 58 90 62 6 5 35 26 65 48 30 22 66 49 80 59 14 11 35 28 48
38 196 152 428 367 561 519 109 124 291 371 291 394 0 5 4 10 8 10 4 0 14 16
21 35 7 19 17 35 22 35 5 0 9 9 9 19 0 11 4 21 9 23 11 4 66 124 103 223 48
133 76 249 83 355 2 25 4 47 5 50 7 20 -2 184 -14 256 -11 70 -55 216 -69 230
-4 4 -7 13 -7 20 0 16 -80 158 -91 162 -5 2 -9 9 -9 15 0 7 -10 24 -23 39 -12
15 -40 48 -62 74 -42 50 -134 141 -173 171 -13 10 -47 37 -76 61 -29 23 -58
42 -65 42 -6 0 -11 3 -11 8 0 17 -268 161 -385 206 -38 15 -85 34 -103 42 -18
9 -43 17 -55 19 -12 3 -31 9 -42 15 -11 5 -60 21 -108 35 -49 14 -92 27 -95
29 -4 2 -43 12 -87 21 -89 19 -138 30 -175 39 -25 7 -58 12 -126 21 -19 2 -43
6 -52 9 -9 3 -44 8 -77 12 -33 3 -69 8 -80 11 -11 2 -47 6 -80 9 -33 3 -80 7
-105 10 -25 2 -70 7 -100 9 -66 6 -758 14 -763 9z"/>
<path d="M9296 5143 c-2 -2 -16 -5 -32 -7 -90 -12 -222 -80 -303 -156 -79 -74
-162 -218 -173 -302 -2 -12 -6 -27 -9 -33 -8 -12 -3 -189 5 -230 23 -107 112
-262 184 -319 88 -71 167 -114 262 -142 50 -15 166 -20 225 -10 82 14 189 48
205 66 3 3 15 10 27 15 38 17 129 98 168 150 88 118 127 245 120 395 -4 108
-28 189 -79 278 -33 54 -114 145 -167 185 -24 18 -154 87 -164 87 -3 0 -6 0
-7 1 -4 1 -30 7 -68 14 -35 8 -188 13 -194 8z"/>
<path d="M8485 3573 c-118 -19 -249 -69 -299 -114 -72 -65 -95 -88 -123 -124
-42 -55 -66 -100 -88 -165 -26 -76 -26 -74 -30 -180 -4 -102 11 -179 56 -287
7 -18 17 -33 21 -33 4 0 8 -5 8 -11 0 -14 60 -90 105 -132 36 -35 135 -100
153 -100 6 0 12 -3 12 -6 0 -5 60 -27 105 -38 51 -12 79 -15 135 -15 69 0 129
8 167 23 13 5 23 6 23 3 0 -2 10 1 23 8 12 7 24 13 27 14 45 10 119 62 192
134 118 115 181 276 173 445 -6 123 -38 223 -103 317 -50 73 -152 168 -179
168 -7 0 -13 4 -13 9 0 13 -109 57 -176 71 -59 13 -152 19 -189 13z"/>
<path d="M7022 2599 c-99 -12 -186 -45 -277 -104 -69 -45 -195 -192 -195 -228
0 -8 -6 -20 -14 -26 -8 -6 -16 -24 -19 -39 -3 -15 -12 -56 -20 -92 -20 -96
-13 -223 17 -293 8 -21 14 -39 13 -40 -5 -6 37 -87 45 -87 4 0 8 -5 8 -11 0
-18 70 -101 120 -143 52 -43 149 -98 195 -111 17 -4 35 -9 40 -11 44 -12 71
-16 148 -18 48 -2 90 1 93 6 3 4 9 6 14 3 18 -11 166 47 232 91 249 166 339
494 210 764 -15 30 -34 64 -44 74 -10 11 -18 23 -18 28 0 15 -104 111 -157
144 -28 19 -68 40 -90 48 -21 8 -47 17 -58 22 -30 11 -45 14 -105 20 -30 3
-59 6 -65 8 -5 1 -39 -1 -73 -5z"/>
</g>
</svg>
